<!--?xml version="1.0" encoding="UTF-8"?-->
<svg xmlns="http://www.w3.org/2000/svg" viewBox="0 0 78 72">
  <path fill="#2D1313" d="
      M18 14
      c-6 0-10 4-10 10
      v18
      c0 6 6 10 6 12
      v4
      c-4 4-6 6-6 10
      v4
      c0 4 4 6 8 6
      h10
      c10-6 14-12 14-20
      V24
      c0-6-4-10-10-10
      Z

      M48 14
      c-6 0-10 4-10 10
      v18
      c0 6 6 10 6 12
      v4
      c-4 4-6 6-6 10
      v4
      c0 4 4 6 8 6
      h10
      c10-6 14-12 14-20
      V24
      c0-6-4-10-10-10
      Z
    "></path>
</svg>
